<?xml version="1.0" standalone="no"?>
<!DOCTYPE svg PUBLIC "-//W3C//DTD SVG 20010904//EN"
 "http://www.w3.org/TR/2001/REC-SVG-20010904/DTD/svg10.dtd">
<svg version="1.0" xmlns="http://www.w3.org/2000/svg"
 width="1280.000000pt" height="720.000000pt" viewBox="0 0 1280.000000 720.000000"
 preserveAspectRatio="xMidYMid meet">
<metadata>
Created by potrace 1.16, written by Peter Selinger 2001-2019
</metadata>
<g transform="translate(0.000000,720.000000) scale(0.100000,-0.100000)"
fill="#e8724f" stroke="none">
<path d="M6365 7190 c-3 -5 -11 -72 -17 -149 -11 -134 -12 -140 -37 -151 -13
-6 -42 -25 -62 -41 -115 -91 -111 -297 8 -384 64 -46 57 -61 -29 -68 -109 -9
-112 -13 -119 -202 -3 -85 -8 -158 -12 -161 -5 -6 -215 48 -537 136 -58 16
-157 43 -220 59 -293 77 -399 105 -740 196 -201 53 -405 107 -455 120 -321 83
-700 184 -948 251 -160 43 -165 42 -174 -47 -4 -43 -1 -64 17 -102 30 -64 73
-99 164 -132 42 -15 76 -33 76 -40 0 -6 -13 -39 -29 -72 -27 -55 -33 -61 -69
-66 -50 -9 -123 -72 -152 -133 -19 -38 -22 -57 -18 -124 5 -79 9 -90 73 -176
8 -12 -173 -384 -360 -739 -23 -44 -169 -330 -323 -635 -154 -305 -330 -652
-391 -770 l-110 -215 -42 -7 c-57 -10 -86 -32 -98 -73 -15 -55 17 -135 55
-135 7 0 24 -23 38 -51 76 -151 247 -315 446 -426 216 -122 423 -188 680 -218
159 -18 241 -19 381 -5 493 50 918 279 1136 610 20 30 43 59 50 63 19 12 43
62 43 91 0 58 -46 106 -103 106 -22 0 -34 21 -122 218 -133 295 -511 1146
-683 1537 -77 176 -168 383 -202 460 -78 176 -79 180 -48 213 77 82 84 211 18
316 l-30 47 36 57 c20 31 37 58 38 59 2 2 223 -76 492 -173 269 -97 575 -206
679 -244 372 -133 1235 -449 1254 -459 11 -6 22 -27 26 -48 10 -58 60 -154
105 -205 l40 -46 -10 -398 c-10 -404 -18 -763 -45 -1874 -8 -338 -19 -813 -25
-1055 -5 -242 -12 -524 -16 -627 l-6 -188 -42 0 c-79 -1 -158 -55 -190 -132
l-16 -36 -57 3 c-209 11 -362 -55 -453 -196 -20 -32 -43 -77 -49 -102 l-13
-44 -181 -6 c-197 -6 -248 -16 -343 -72 -140 -82 -229 -254 -222 -428 l3 -72
1959 -3 c1440 -1 1962 1 1972 9 30 25 7 203 -40 305 -14 30 -49 79 -78 110
-120 127 -222 154 -574 154 l-52 0 -7 37 c-17 94 -121 215 -230 269 -55 26
-72 29 -193 34 l-133 5 -27 50 c-37 67 -94 106 -169 114 l-58 6 -2 45 c-2 25
-12 428 -23 895 -11 468 -24 1012 -30 1210 -5 198 -17 726 -27 1173 l-17 813
25 24 24 24 80 -19 c44 -10 152 -35 240 -54 88 -19 273 -60 410 -90 363 -80
839 -183 1000 -216 77 -16 235 -50 350 -75 116 -25 264 -58 330 -72 66 -14
121 -26 123 -28 2 -1 -7 -42 -19 -91 -22 -84 -26 -92 -80 -144 -114 -109 -116
-237 -7 -392 10 -13 4 -33 -29 -105 -23 -48 -53 -115 -69 -148 -45 -99 -441
-956 -617 -1335 -288 -622 -351 -755 -364 -776 -10 -15 -27 -23 -59 -27 -52
-5 -79 -26 -94 -73 -16 -49 3 -100 46 -126 18 -11 36 -28 39 -39 4 -10 32 -54
64 -97 213 -287 618 -491 1076 -542 394 -44 825 60 1150 278 155 104 308 262
370 383 10 18 31 46 46 60 62 58 25 169 -60 184 l-38 6 -81 167 c-44 92 -132
273 -195 402 -63 129 -201 415 -307 635 -106 220 -237 492 -291 604 -55 112
-99 205 -99 207 0 2 -36 76 -80 166 -44 89 -80 166 -80 170 0 5 16 33 36 63
31 46 37 66 42 123 6 89 -21 155 -88 215 l-48 43 25 64 c13 36 27 68 31 72 4
4 32 1 62 -7 107 -29 181 -17 248 40 36 30 72 92 72 124 0 27 -7 30 -230 95
-107 32 -244 73 -305 92 -60 18 -213 66 -340 104 -473 146 -538 166 -1075 335
-517 163 -785 247 -942 297 l-157 50 -40 62 c-21 33 -56 77 -75 95 l-36 35 0
157 c0 87 -4 169 -10 183 -14 37 -49 55 -118 62 -41 5 -62 11 -62 20 0 7 24
37 54 67 60 60 76 99 76 188 0 76 -36 147 -100 194 -26 19 -52 35 -58 35 -12
0 -19 39 -27 155 -9 133 -12 145 -40 145 -13 0 -26 -4 -30 -10z m-38 -417 c-4
-27 -9 -94 -13 -151 -4 -56 -11 -105 -15 -108 -5 -3 -22 16 -39 42 -49 77 -38
180 26 239 39 36 47 32 41 -22z m176 20 c33 -35 57 -92 57 -135 0 -40 -30
-106 -57 -131 -21 -18 -21 -18 -28 75 -4 51 -10 121 -14 156 -8 71 0 78 42 35z
m-3250 -82 c78 -22 237 -64 352 -95 169 -44 677 -178 1205 -318 626 -165 1244
-330 1248 -333 2 -2 -15 -31 -37 -65 -51 -79 -81 -159 -88 -232 -3 -32 -9 -58
-13 -58 -5 0 -349 124 -766 276 -751 273 -1604 579 -1656 594 -32 10 -32 10
-123 -134 -92 -146 -105 -161 -127 -144 -17 12 -16 17 11 70 16 31 48 98 71
149 36 76 40 93 29 104 -8 7 -53 26 -102 44 -48 17 -98 38 -111 46 -22 14 -66
98 -66 124 0 17 22 14 173 -28z m3172 -287 c14 -165 25 -308 25 -317 0 -14
-10 -17 -55 -17 -30 0 -55 3 -55 6 0 3 9 128 20 277 21 285 31 392 37 367 1
-8 14 -150 28 -316z m-139 -181 c-13 -167 -13 -169 -54 -182 -21 -7 -43 -15
-51 -18 -12 -5 -13 16 -7 133 4 91 11 141 19 146 7 4 32 8 56 8 l43 0 -6 -87z
m305 77 c17 -10 19 -22 19 -144 l0 -134 -44 16 c-50 18 -49 15 -62 185 l-6 87
36 0 c21 0 46 -5 57 -10z m-3421 -91 c0 -41 15 -66 50 -84 54 -28 86 -20 122
30 18 24 37 44 41 45 15 0 47 -85 47 -125 0 -40 -29 -117 -48 -129 -5 -3 -24
23 -41 59 l-31 65 -54 0 c-48 0 -57 -3 -74 -27 -10 -16 -24 -43 -32 -61 -18
-47 -27 -48 -49 -3 -33 64 -36 111 -12 167 22 48 57 94 73 94 4 0 8 -14 8 -31z
m3390 -245 c312 -150 312 -603 0 -757 -60 -30 -72 -32 -165 -32 -88 0 -107 3
-157 27 -175 82 -274 281 -234 469 19 88 47 141 110 207 84 89 167 123 296
119 72 -2 95 -7 150 -33z m-3249 -211 c17 -38 41 -93 54 -123 27 -65 303 -726
475 -1135 136 -322 158 -374 288 -687 50 -120 103 -240 117 -267 16 -32 21
-52 14 -56 -6 -4 -49 -4 -97 -1 -48 3 -532 11 -1077 17 -544 6 -992 13 -994
15 -2 2 1 9 6 16 6 7 121 243 256 523 135 281 307 636 382 790 288 589 359
734 416 853 58 122 59 122 94 122 33 0 36 -3 66 -67z m3581 -62 c27 -11 72
-26 1223 -386 801 -251 1391 -432 1613 -495 35 -10 66 -20 69 -24 9 -8 -36
-55 -69 -72 -36 -19 -87 -17 -181 5 -89 21 -94 20 -119 -50 -90 -245 -94 -254
-114 -254 -30 0 -29 34 7 185 33 141 33 170 2 170 -10 0 -77 13 -148 29 -72
16 -301 66 -510 110 -209 45 -409 88 -445 96 -36 8 -283 62 -550 120 -720 156
-875 192 -873 201 1 5 15 38 30 74 25 59 28 76 28 182 0 65 3 118 7 118 4 0
17 -4 30 -9z m-4062 -500 c-11 -22 -57 -117 -104 -213 -46 -95 -141 -290 -211
-433 -115 -236 -270 -557 -433 -896 -54 -113 -83 -151 -101 -134 -3 3 25 65
62 138 36 73 179 355 317 627 139 272 303 597 366 723 63 125 116 227 119 227
3 0 -4 -18 -15 -39z m858 -132 c33 -74 99 -224 147 -334 116 -264 395 -890
483 -1085 66 -144 69 -155 50 -158 -11 -2 -24 0 -28 5 -7 8 -67 150 -356 838
-80 193 -197 471 -260 618 -63 148 -114 271 -114 275 1 13 18 -23 78 -159z
m2520 82 c110 -56 287 -51 395 10 11 6 20 9 22 7 5 -6 25 -813 80 -3263 9
-385 19 -740 23 -790 l7 -90 66 -7 c73 -7 100 -18 142 -56 57 -54 73 -52 -547
-52 -339 0 -577 4 -581 9 -3 5 9 25 27 44 34 36 99 57 173 57 28 0 36 4 39 23
3 12 7 171 11 352 3 182 10 488 15 680 6 193 17 658 25 1035 9 377 22 966 30
1310 8 344 15 653 15 688 0 36 4 62 10 62 6 0 28 -9 48 -19z m3261 -738 c55
-67 61 -174 12 -235 l-20 -23 -30 65 -31 65 -57 0 -57 0 -34 -70 -34 -70 -19
23 c-41 51 -50 142 -20 208 24 53 38 61 52 31 17 -39 70 -63 110 -51 26 7 39
19 54 51 11 23 25 42 32 43 6 0 25 -17 42 -37z m2 -583 c219 -472 512 -1107
629 -1365 71 -154 176 -383 234 -509 58 -126 106 -230 106 -231 0 -1 -323 -5
-717 -9 -395 -3 -882 -9 -1082 -12 -353 -6 -364 -6 -359 12 3 11 97 224 208
474 111 250 215 484 230 520 15 36 83 189 150 340 102 229 365 829 417 948 13
31 17 33 54 30 l40 -3 90 -195z m-6246 -391 c600 -6 1135 -14 1190 -18 l100
-6 0 -30 0 -30 -505 3 c-1142 5 -2162 21 -2176 33 -8 6 -14 19 -14 28 0 37 19
41 170 36 80 -3 635 -10 1235 -16z m6663 -319 c67 -140 245 -509 395 -820 151
-311 271 -569 267 -574 -5 -4 -16 -4 -26 2 -9 5 -116 225 -239 493 -122 266
-287 626 -368 799 -148 320 -175 383 -159 365 5 -5 64 -125 130 -265z m-1208
-341 c-133 -299 -265 -598 -295 -664 -30 -66 -83 -185 -118 -265 -51 -117 -68
-146 -85 -148 -12 -2 -22 -1 -22 2 0 3 40 90 89 193 48 104 115 247 149 318
193 417 340 734 422 913 51 111 95 200 97 199 2 -2 -105 -249 -237 -548z
m-5215 511 c407 -6 793 -10 858 -10 77 0 117 -4 117 -11 0 -20 -88 -126 -161
-193 -122 -113 -306 -223 -484 -289 -433 -162 -970 -135 -1375 68 -108 54
-253 151 -324 216 -63 57 -145 157 -170 208 l-18 33 409 -6 c224 -4 741 -11
1148 -16z m7194 -1636 c29 -6 32 -10 29 -38 l-3 -31 -525 -7 c-1496 -21 -2136
-25 -2147 -16 -22 18 -16 57 10 62 34 8 579 15 1527 22 476 4 867 8 869 10 7
7 206 4 240 -2z m-39 -150 c0 -4 -20 -34 -44 -68 -188 -261 -531 -458 -931
-532 -151 -29 -459 -27 -617 4 -307 58 -578 189 -771 372 -94 89 -176 197
-155 205 7 2 434 8 948 13 1292 12 1570 13 1570 6z m-3335 -669 c113 -29 213
-119 249 -222 l15 -43 -1155 0 c-1030 0 -1154 2 -1154 15 0 29 48 110 91 153
45 45 129 91 188 103 20 4 412 7 871 8 723 1 844 -1 895 -14z m707 -349 c175
-41 307 -207 308 -386 l0 -45 -1907 3 -1908 2 3 53 c7 106 38 181 104 253 47
51 129 101 196 119 71 20 3122 21 3204 1z"/>
<path d="M6341 5810 c-73 -18 -138 -95 -147 -175 -9 -73 10 -129 60 -179 71
-72 167 -82 250 -27 38 25 84 94 92 137 28 149 -110 281 -255 244z m125 -85
c63 -41 83 -134 41 -196 -83 -125 -262 -55 -244 97 11 100 120 154 203 99z"/>
<path d="M4164 3199 c-80 -127 -222 -227 -394 -279 -117 -35 -122 -37 -118
-63 4 -31 44 -33 131 -7 154 47 296 136 387 243 62 73 78 110 59 133 -19 24
-38 16 -65 -27z"/>
<path d="M10362 1458 c-6 -6 -12 -17 -12 -24 0 -26 -94 -137 -152 -180 -83
-61 -122 -81 -248 -124 -95 -33 -105 -39 -105 -61 0 -22 4 -24 45 -23 53 1
178 48 270 101 130 76 282 257 253 302 -13 21 -35 25 -51 9z"/>
</g>
</svg>
