<?xml version="1.0" standalone="no"?>
<!DOCTYPE svg PUBLIC "-//W3C//DTD SVG 20010904//EN"
 "http://www.w3.org/TR/2001/REC-SVG-20010904/DTD/svg10.dtd">
<svg version="1.0" xmlns="http://www.w3.org/2000/svg"
 width="1280.000000pt" height="720.000000pt" viewBox="0 0 1280.000000 720.000000"
 preserveAspectRatio="xMidYMid meet">
<metadata>
Created by potrace 1.16, written by Peter Selinger 2001-2019
</metadata>
<g transform="translate(0.000000,720.000000) scale(0.100000,-0.100000)"
fill="#e8724f" stroke="none">
<path d="M6365 7190 c-3 -5 -11 -72 -17 -149 -11 -134 -12 -140 -37 -151 -13
-6 -42 -25 -62 -41 -115 -91 -111 -297 8 -384 64 -46 57 -61 -29 -68 -112 -9
-113 -13 -121 -233 l-6 -178 -44 -44 c-45 -44 -45 -45 -138 -53 -52 -4 -254
-17 -449 -29 -195 -11 -368 -22 -385 -25 -16 -2 -82 -6 -145 -10 -63 -3 -140
-8 -170 -10 -30 -2 -100 -7 -155 -10 -55 -3 -194 -12 -310 -20 -115 -8 -290
-19 -388 -25 -98 -6 -201 -13 -230 -15 -29 -3 -222 -17 -429 -30 -208 -14
-384 -28 -393 -31 -17 -7 -18 -13 -15 -64 4 -74 77 -158 158 -180 23 -6 71
-10 108 -9 37 1 69 -3 72 -8 4 -6 6 -48 4 -93 -3 -80 -4 -82 -32 -92 -57 -20
-119 -131 -120 -214 0 -65 22 -127 60 -170 16 -19 30 -41 30 -50 0 -8 -13 -41
-30 -73 -16 -33 -49 -104 -74 -158 -51 -114 -137 -300 -301 -648 -166 -353
-249 -531 -315 -675 -64 -139 -129 -277 -198 -420 -25 -52 -78 -165 -118 -250
l-73 -155 -48 -8 c-62 -10 -93 -42 -93 -99 0 -45 25 -95 52 -104 9 -3 32 -30
49 -61 67 -118 243 -284 389 -370 241 -141 499 -221 792 -244 449 -37 925 114
1252 395 71 62 179 192 212 258 13 26 29 48 34 48 18 0 50 64 50 102 0 52 -39
96 -88 100 l-37 3 -90 180 c-49 99 -123 250 -164 335 -41 85 -116 241 -167
345 -96 200 -150 312 -294 615 -48 102 -127 266 -175 365 -155 320 -245 516
-245 531 0 8 9 25 21 37 42 45 54 79 54 162 0 96 -21 142 -91 204 l-47 41 12
85 13 85 92 0 c119 0 1235 -27 1671 -40 187 -5 446 -12 576 -16 229 -6 237 -7
247 -28 5 -11 29 -43 52 -69 l42 -48 -6 -212 c-4 -117 -13 -489 -21 -827 -8
-338 -20 -799 -25 -1025 -6 -225 -17 -698 -25 -1050 -8 -352 -17 -727 -21
-833 l-6 -192 -42 0 c-80 -1 -158 -55 -191 -133 l-16 -38 -57 4 c-203 15 -361
-53 -452 -194 -21 -32 -42 -78 -48 -102 l-12 -44 -182 -6 c-197 -6 -249 -16
-341 -70 -142 -84 -232 -255 -225 -430 l3 -72 1959 -3 c1440 -1 1962 1 1972 9
30 25 7 203 -40 305 -29 63 -112 155 -172 190 -89 52 -147 64 -346 71 l-186 6
-7 36 c-17 92 -122 214 -230 267 -55 26 -72 29 -193 34 l-133 5 -27 50 c-37
67 -94 106 -169 114 l-58 6 -2 50 c-2 28 -12 424 -23 880 -32 1321 -39 1628
-45 1825 -2 102 -10 454 -17 783 l-11 597 30 33 c16 17 44 53 61 78 l31 47
113 6 c62 4 129 9 148 11 19 2 96 9 170 15 196 15 518 40 570 45 25 2 190 16
365 30 176 14 340 27 365 30 25 2 164 14 310 25 146 11 301 25 345 30 44 6
103 10 132 10 l53 0 0 -79 c0 -70 -2 -80 -20 -86 -35 -11 -100 -95 -116 -153
-26 -87 -2 -193 58 -258 20 -22 20 -22 -25 -115 -25 -52 -86 -182 -137 -289
-167 -353 -247 -522 -360 -760 -62 -129 -146 -306 -187 -393 -40 -87 -78 -166
-83 -175 -10 -17 -80 -165 -222 -467 -44 -93 -85 -176 -90 -182 -6 -7 -28 -13
-50 -13 -56 0 -98 -43 -98 -99 0 -49 17 -89 41 -96 10 -3 47 -50 82 -103 256
-384 848 -633 1407 -592 391 28 726 158 989 383 71 60 158 159 199 225 15 24
44 64 65 88 35 43 41 61 38 109 -4 50 -51 95 -100 95 -25 0 -20 -9 -256 490
-98 206 -260 548 -360 760 -343 724 -438 925 -481 1025 l-44 99 25 26 c66 69
83 185 41 275 -21 47 -80 115 -98 115 -9 0 -9 76 0 140 l7 45 82 11 c143 21
203 64 238 171 16 49 16 55 1 78 l-16 25 -393 0 c-215 0 -925 5 -1577 11
l-1185 11 -42 41 -43 41 0 157 c0 87 -4 169 -10 183 -14 37 -49 55 -118 62
-41 5 -62 11 -62 20 0 7 24 37 54 67 60 60 76 99 76 188 0 76 -36 147 -100
194 -26 19 -52 35 -58 35 -12 0 -19 39 -27 155 -9 133 -12 145 -40 145 -13 0
-26 -4 -30 -10z m-38 -417 c-4 -27 -9 -94 -13 -151 -4 -56 -11 -105 -15 -108
-5 -3 -22 16 -39 42 -49 77 -38 180 26 239 39 36 47 32 41 -22z m175 20 c37
-41 58 -87 58 -130 0 -44 -28 -110 -57 -136 -21 -18 -21 -18 -28 75 -4 51 -10
121 -14 156 -8 71 0 78 41 35z m-77 -369 c14 -165 25 -308 25 -317 0 -14 -10
-17 -55 -17 -30 0 -55 3 -55 6 0 3 9 128 20 277 21 285 31 392 37 367 1 -8 14
-150 28 -316z m-139 -176 c-14 -175 -13 -173 -54 -188 -20 -7 -43 -15 -51 -18
-12 -5 -13 16 -7 134 5 89 12 141 19 146 7 4 32 8 56 8 l43 0 -6 -82z m305 72
c17 -10 19 -22 19 -144 l0 -134 -44 16 c-50 18 -49 15 -62 185 l-6 87 36 0
c21 0 46 -5 57 -10z m-29 -337 c310 -147 309 -602 -2 -756 -60 -30 -72 -32
-165 -32 -93 0 -105 2 -167 33 -255 125 -312 474 -109 677 82 83 167 116 291
112 72 -2 95 -7 152 -34z m2721 -158 l587 0 0 -22 c0 -29 -42 -77 -84 -97 -19
-9 -75 -19 -125 -23 -50 -3 -95 -11 -100 -17 -5 -6 -17 -79 -26 -161 -9 -83
-20 -157 -25 -165 -4 -8 -16 -15 -26 -15 -18 0 -19 11 -22 161 -2 124 -6 165
-17 174 -10 9 -65 7 -232 -9 -120 -11 -279 -25 -353 -31 -74 -6 -207 -17 -295
-25 -88 -8 -189 -17 -225 -20 -36 -2 -148 -12 -250 -20 -215 -17 -235 -19
-560 -44 -135 -11 -288 -23 -340 -27 -52 -3 -102 -8 -111 -9 -9 -2 -66 -6
-127 -10 l-111 -7 9 33 c24 82 8 228 -35 333 -8 18 12 19 936 10 519 -5 1208
-9 1532 -9z m-3317 -20 c-30 -78 -38 -134 -33 -224 3 -53 8 -107 13 -120 l7
-24 -209 7 c-115 3 -396 11 -624 16 -228 6 -586 15 -795 20 -968 25 -962 25
-968 4 -3 -10 -16 -86 -27 -169 -22 -150 -37 -192 -61 -168 -8 8 -12 68 -13
180 l-1 168 -129 5 -128 5 -44 49 c-32 35 -42 52 -34 61 6 8 55 15 133 19 67
4 138 9 157 11 30 3 317 21 645 40 55 4 118 8 140 10 65 7 471 34 750 50 242
14 476 29 605 40 30 2 156 9 280 16 124 6 227 13 229 15 2 2 29 4 59 4 45 0
53 -3 48 -15z m3424 -475 c0 -66 117 -96 165 -44 14 15 25 35 25 45 0 51 62
-21 80 -93 9 -36 9 -55 -1 -85 -13 -42 -37 -83 -48 -83 -4 0 -20 27 -36 59
l-28 59 -49 4 c-27 1 -55 0 -62 -4 -6 -3 -25 -34 -41 -67 -16 -34 -32 -61 -36
-61 -4 0 -17 19 -28 43 -25 52 -27 123 -6 174 27 63 65 94 65 53z m-5944 -227
c20 -46 17 -130 -6 -181 -11 -24 -23 -41 -28 -38 -4 2 -21 32 -37 66 l-29 61
-60 -3 -61 -3 -27 -57 c-15 -32 -32 -58 -38 -58 -14 0 -37 39 -50 88 -9 35 -8
53 4 96 22 76 86 126 86 67 0 -19 34 -54 63 -64 34 -12 87 19 105 62 l17 40
24 -22 c13 -12 30 -36 37 -54z m2762 58 c56 -29 154 -45 230 -38 61 6 150 32
168 50 24 23 24 22 49 -1083 8 -360 22 -929 30 -1265 8 -335 20 -842 26 -1125
6 -283 14 -549 17 -590 l7 -75 66 -7 c73 -7 100 -18 142 -56 57 -54 73 -52
-547 -52 -339 0 -577 4 -581 9 -3 5 9 25 27 44 34 36 99 57 173 57 28 0 36 4
39 23 3 12 7 171 11 352 3 182 10 488 15 680 6 193 17 652 25 1020 8 369 22
958 30 1310 8 352 15 668 15 703 0 36 4 62 10 62 6 0 28 -9 48 -19z m3366
-334 c78 -177 279 -624 381 -847 103 -224 252 -556 315 -700 37 -85 88 -199
114 -253 25 -55 46 -100 46 -102 0 -2 26 -62 59 -132 32 -70 61 -137 64 -148
7 -20 1 -20 -1073 -24 -660 -2 -1080 0 -1080 6 0 5 29 72 64 148 35 77 128
282 206 455 79 173 243 536 365 805 122 270 264 583 315 698 l94 207 41 0 40
-1 49 -112z m-6166 -244 c45 -98 113 -248 152 -333 79 -171 394 -862 599
-1315 73 -159 153 -334 178 -387 26 -54 44 -100 41 -103 -3 -3 -490 -11 -1082
-18 l-1078 -12 6 30 c4 16 26 72 50 125 60 131 216 477 261 580 40 92 116 263
218 490 36 80 113 253 172 385 59 132 126 283 150 335 23 52 71 160 106 240
35 80 68 148 74 152 5 4 24 8 41 8 31 0 32 -3 112 -177z m6561 -443 c24 -52
106 -225 181 -385 76 -159 195 -411 265 -560 70 -148 158 -334 196 -412 38
-78 69 -144 69 -147 0 -3 -10 -6 -22 -6 -19 0 -30 15 -60 83 -21 45 -110 244
-199 442 -200 446 -287 640 -329 730 -66 143 -212 471 -216 485 -7 23 66 -122
115 -230z m-1038 -175 c-54 -121 -138 -305 -186 -410 -129 -279 -249 -545
-358 -790 -51 -114 -66 -141 -85 -143 -12 -2 -22 -1 -22 1 0 3 47 102 105 222
58 119 105 218 105 220 0 3 76 162 197 415 43 91 137 288 208 437 71 150 130
271 131 270 2 -2 -41 -102 -95 -222z m-5111 -95 c54 -113 157 -329 230 -480
243 -505 300 -623 300 -626 0 -2 34 -72 75 -155 41 -83 75 -155 75 -161 0 -5
-10 -8 -22 -6 -22 3 -117 200 -412 858 -33 72 -87 191 -286 625 -50 110 -94
207 -96 215 -12 35 46 -79 136 -270z m-1021 34 c-11 -27 -29 -67 -39 -89 -33
-72 -195 -434 -320 -715 -67 -151 -153 -342 -190 -425 -38 -82 -76 -170 -86
-195 -21 -54 -32 -70 -50 -70 -28 0 -22 15 163 400 28 58 66 137 84 175 17 39
86 185 151 325 66 140 160 344 211 452 50 109 92 196 94 194 2 -2 -6 -25 -18
-52z m8011 -1363 c13 -26 4 -48 -23 -54 -12 -3 -615 -6 -1339 -7 l-1316 -1 -7
22 c-6 17 -2 27 15 41 21 17 83 18 1341 18 1292 0 1319 0 1329 -19z m-70 -133
c0 -42 -158 -212 -285 -306 -429 -318 -1041 -398 -1572 -206 -243 88 -457 229
-592 389 -34 40 -81 110 -81 120 0 4 438 6 2283 11 136 0 247 -3 247 -8z
m-6109 -38 c22 -12 25 -43 7 -58 -19 -14 -313 -21 -1560 -33 -885 -9 -1111 -9
-1123 1 -20 17 -19 47 3 58 9 5 411 13 902 17 846 8 1741 19 1748 23 2 1 12
-3 23 -8z m-61 -146 c0 -15 -114 -156 -166 -205 -157 -148 -380 -275 -604
-342 -407 -123 -855 -95 -1233 77 -150 69 -345 205 -425 297 -56 64 -106 138
-99 145 3 3 405 10 894 15 488 5 953 10 1033 12 326 6 600 7 600 1z m2715
-1379 c113 -29 213 -119 249 -222 l15 -43 -1155 0 c-917 0 -1154 3 -1154 13 0
29 51 115 90 155 47 45 130 91 189 103 20 4 412 7 871 8 723 1 844 -1 895 -14z
m707 -349 c175 -41 307 -207 308 -386 l0 -45 -1907 3 -1908 2 4 57 c11 180
125 320 301 369 69 19 3121 19 3202 0z"/>
<path d="M6341 5810 c-106 -25 -173 -151 -141 -268 26 -97 144 -168 236 -143
163 45 217 239 99 356 -56 56 -116 73 -194 55z m117 -80 c100 -61 94 -202 -11
-254 -95 -46 -197 37 -184 150 11 97 115 153 195 104z"/>
<path d="M10462 2315 c-57 -117 -224 -239 -397 -289 -97 -28 -105 -33 -105
-62 0 -26 1 -27 48 -21 61 7 200 60 277 106 133 80 279 254 246 295 -23 28
-46 18 -69 -29z"/>
<path d="M4313 2168 c-6 -7 -18 -28 -28 -47 -56 -110 -262 -253 -420 -292 -85
-20 -105 -40 -70 -69 23 -19 130 11 253 71 90 44 115 62 196 142 104 104 133
151 112 181 -16 26 -30 30 -43 14z"/>
</g>
</svg>
